<?xml version="1.0" standalone="no"?><!DOCTYPE svg PUBLIC "-//W3C//DTD SVG 1.1//EN" "http://www.w3.org/Graphics/SVG/1.1/DTD/svg11.dtd"><svg t="1776929424596" class="icon" viewBox="0 0 1024 1024" version="1.1" xmlns="http://www.w3.org/2000/svg" p-id="16974" width="256" height="256" xmlns:xlink="http://www.w3.org/1999/xlink"><path d="M704 708.266667c8.533333-8.533333 21.333333-8.533333 29.866667 0 8.533333 8.533333 8.533333 21.333333 0 29.866666-59.733333 59.733333-140.8 89.6-221.866667 89.6-174.933333 0-320-145.066667-320-320S337.066667 192 512 192s320 145.066667 320 320c0 29.866667-4.266667 64-12.8 89.6-4.266667 12.8-17.066667 17.066667-25.6 12.8-12.8-4.266667-17.066667-17.066667-12.8-25.6 8.533333-25.6 12.8-51.2 12.8-81.066667 0-153.6-123.733333-277.333333-277.333333-277.333333s-281.6 128-281.6 281.6 123.733333 277.333333 277.333333 277.333333c72.533333 0 140.8-29.866667 192-81.066666zM430.933333 597.333333c12.8-4.266667 21.333333 4.266667 25.6 12.8 4.266667 12.8-4.266667 21.333333-12.8 25.6l-29.866666 8.533334c-17.066667 4.266667-34.133333-4.266667-38.4-17.066667v-17.066667l55.466666-162.133333c4.266667-8.533333 8.533333-17.066667 17.066667-17.066667l162.133333-55.466666c17.066667-4.266667 34.133333 4.266667 38.4 17.066666v17.066667l-55.466666 162.133333c-4.266667 8.533333-8.533333 17.066667-17.066667 17.066667l-42.666667 12.8c-12.8 4.266667-21.333333-4.266667-25.6-12.8s4.266667-21.333333 12.8-25.6l34.133334-8.533333 42.666666-132.266667-128 46.933333-42.666666 128h4.266666z m81.066667-64c-12.8 0-21.333333-8.533333-21.333333-21.333333s8.533333-21.333333 21.333333-21.333333 21.333333 8.533333 21.333333 21.333333-8.533333 21.333333-21.333333 21.333333z" p-id="16975"></path></svg>